<?xml version="1.0" encoding="UTF-8" standalone="no"?>
<!-- Created with Inkscape (http://www.inkscape.org/) -->

<svg
   version="1.1"
   id="svg1"
   width="472.95761"
   height="192.6395"
   viewBox="0 0 472.9576 192.63949"
   sodipodi:docname="Turtle2c.svg"
   inkscape:version="1.3.2 (091e20ef0f, 2023-11-25)"
   xmlns:inkscape="http://www.inkscape.org/namespaces/inkscape"
   xmlns:sodipodi="http://sodipodi.sourceforge.net/DTD/sodipodi-0.dtd"
   xmlns="http://www.w3.org/2000/svg"
   xmlns:svg="http://www.w3.org/2000/svg">
  <defs
     id="defs1" />
  <sodipodi:namedview
     id="namedview1"
     pagecolor="#ffffff"
     bordercolor="#000000"
     borderopacity="0.25"
     inkscape:showpageshadow="2"
     inkscape:pageopacity="0.0"
     inkscape:pagecheckerboard="0"
     inkscape:deskcolor="#d1d1d1"
     showgrid="false"
     inkscape:zoom="1.4702451"
     inkscape:cx="173.78055"
     inkscape:cy="164.25833"
     inkscape:window-width="1920"
     inkscape:window-height="1011"
     inkscape:window-x="0"
     inkscape:window-y="0"
     inkscape:window-maximized="1"
     inkscape:current-layer="layer2" />
  <g
     inkscape:groupmode="layer"
     id="layer2"
     inkscape:label="Layer 1">
    <path
       style="fill:#000000;stroke-width:4.13829"
       d="m -242.39204,62.449931 c -2.21004,-1.365877 -0.15424,-6.294643 3.67087,-8.800959 1.83744,-1.203937 6.11262,-2.891906 9.5004,-3.75104 7.59714,-1.92662 7.85747,-2.940179 4.77816,-18.602768 -1.91959,-9.763742 -2.09747,-13.384835 -0.94325,-19.201687 1.57713,-7.9481104 1.25724,-9.0590933 -2.0142,-6.9955208 -3.20255,2.0201122 -4.33563,9.2140058 -2.89282,18.3663308 0.68891,4.370038 1.25707,10.180202 1.26257,12.911476 l 0.01,4.965953 h -21.10991 c -11.61046,0 -21.45061,-0.551258 -21.86702,-1.225022 -2.68899,-4.350874 7.52525,-12.017518 16.01089,-12.017518 3.08929,0 3.34556,-0.369591 2.52516,-3.641698 -0.50218,-2.002935 -1.22997,-7.578342 -1.6173,-12.389795 l -0.70417,-8.7480964 -12.11068,-0.8034414 c -6.66087,-0.4418953 -18.06982,-2.30402398 -25.35322,-4.1380702 -17.57375,-4.4252719 -46.95814,-15.033047 -50.50689,-18.232999 -3.60529,-3.25094 -5.59054,-10.96366 -6.06321,-23.555619 l -0.37283,-9.931905 6.31957,-1.220618 c 7.92848,-1.531384 45.72126,1.407727 53.27187,4.142904 2.91335,1.055351 11.40513,2.248492 18.87061,2.651425 13.06708,0.705265 13.57361,0.630622 13.57361,-2.000253 0,-1.503069 1.10676,-3.084125 2.45948,-3.513461 3.01676,-0.957485 16.63794,-15.443077 27.33623,-29.07102 9.09207,-11.581863 23.04956,-23.714009 36.06158,-31.345459 18.06278,-10.5937 41.97529,-15.73563 73.18938,-15.73798 55.082894,-0.004 91.351409,19.98758 128.4390323,70.797447 6.3683287,8.724578 16.5503897,21.078572 23.7388047,28.802523 l 4.621646,4.965953 -5.019254,5.140187 -5.019266,5.140187 3.471545,5.4992624 c 3.697606,5.8574029 12.579585,12.0893546 24.569008,17.2385878 4.005868,1.720446 9.690518,4.1758858 12.632555,5.4565348 2.941996,1.280645 11.582753,4.995972 19.201682,8.256281 17.343297,7.42162 33.253717,15.15475 35.017947,17.020222 0.95781,1.012719 -1.13985,1.168356 -7.26076,0.538719 C 110.55152,38.932 93.865916,37.963254 78.206613,37.266225 62.54731,36.569195 46.159667,35.562266 41.789629,35.028608 37.419591,34.49495 26.173935,34.242411 16.799268,34.46741 l -17.04484119,0.40907 0.81243809,4.225802 c 0.4468447,2.32419 1.3517653,6.609455 2.0109335,9.522814 0.6591722,2.913359 1.6321637,7.233737 2.1622046,9.600841 l 0.9637134,4.303826 H -18.960514 c -23.114609,0 -24.66423,-0.153903 -24.66423,-2.449816 0,-2.904201 7.216828,-13.244729 9.985107,-14.307017 3.064385,-1.175913 2.324442,-2.587795 -3.694901,-7.050191 l -5.628079,-4.17234 -13.904667,0.691058 c -43.109851,2.142556 -70.159216,2.260795 -88.062896,0.384944 -15.1929,-1.591832 -19.49574,-1.639497 -23.83657,-0.264023 -2.91336,0.923146 -8.27659,2.436044 -11.91828,3.361991 -3.6417,0.925952 -7.06978,2.073997 -7.61796,2.551213 -0.54817,0.477219 -1.54148,5.206453 -2.20734,10.509412 -0.66587,5.302962 -1.57904,10.010126 -2.02929,10.460369 -1.13732,1.137323 -48.03184,1.329745 -49.85243,0.204555 z"
       id="path1"
       transform="translate(350.18949,129.43691)" />
    <path
       style="fill:#71c837;stroke-width:4.13829"
       d="m -192.9632,53.922128 c 2.45625,-15.889773 1.71017,-14.574731 9.31229,-16.413805 3.81626,-0.923212 9.82339,-2.589955 13.3492,-3.703876 5.40431,-1.707406 8.62624,-1.795581 20.52594,-0.561736 17.36471,1.800489 64.853857,1.939734 88.935726,0.260754 l 17.877429,-1.246396 6.952333,5.247344 c 7.633943,5.761791 8.235862,7.029942 4.329098,9.120778 -3.032976,1.6232 -9.29505,10.380997 -9.29505,12.999556 0,1.44102 4.033073,1.649929 21.321209,1.104411 C -7.9283592,60.359112 1.9549661,59.767601 2.307917,59.41465 2.8459739,58.876593 -1.8135213,38.242382 -3.4179006,34.058302 -4.1302499,32.20056 33.820312,31.733848 47.086646,33.437202 58.14934,34.857614 112.92019,37.464027 113.81196,36.612503 114.36413,36.085247 100.8521,29.70226 84.827885,22.920627 79.365337,20.608815 71.320494,17.200955 66.950456,15.347608 45.701228,6.3357282 37.076528,1.3343478 31.61427,-5.1435633 28.606806,-8.7102551 25.673373,-11.62846 25.095559,-11.62846 c -0.577813,0 -3.637183,1.7456814 -6.798591,3.8792905 C 6.2150705,0.40480431 -8.4210231,6.5717971 -23.760933,9.9721461 -51.203618,16.055276 -61.430459,16.846531 -112.48595,16.836843 -158.24629,16.828152 -174.02675,13.885615 -201.8731,0.16903744 -218.01935,-7.7842995 -233.23783,-19.723082 -245.57348,-34.113601 l -9.26978,-10.813933 -13.24253,-0.485897 c -7.2834,-0.267251 -16.22212,-1.367065 -19.86381,-2.444056 -9.2452,-2.73415 -16.83265,-3.565554 -40.05869,-4.389463 -19.55039,-0.69352 -20.19487,-0.631868 -20.19487,1.931942 0,1.45658 0.89387,2.991336 1.98638,3.410574 2.47489,0.949706 2.56432,4.051013 0.18541,6.429924 -1.03168,1.031676 -1.59821,3.653132 -1.32629,6.136994 0.95063,8.68351 0.64454,8.501748 26.3017,15.618628 4.37004,1.212177 7.22677,2.450491 6.34829,2.751808 -0.87849,0.301309 -7.21606,-0.982886 -14.0835,-2.853784 -6.86744,-1.870898 -12.9719,-3.401632 -13.56547,-3.401632 -2.38035,0 1.78213,2.586653 7.39602,4.596039 36.34527,13.0090943 53.27957,17.3816568 71.50971,18.46435443 8.64884,0.51365747 9.8935,0.90127487 9.63462,3.00046567 -0.1635,1.3258307 0.41845,7.1779199 1.29324,13.0046379 0.8748,5.826717 1.60449,11.189946 1.62155,11.918285 0.0302,1.287324 -1.25807,1.552444 -8.9679,1.845613 -4.49895,0.171077 -11.4819,6.477315 -8.92334,8.05859 1.69527,1.047738 36.68774,0.90531 37.74668,-0.153654 0.31857,-0.318566 -0.0915,-6.31096 -0.91133,-13.316458 -1.90132,-16.2478062 -0.76368,-20.9823369 5.42721,-22.5865589 2.43187,-0.6301586 4.74967,-0.8176564 5.15066,-0.4166641 0.401,0.4010007 0.0377,3.036742 -0.80734,5.8572126 -2.0651,6.8926884 -1.93428,14.8618214 0.42696,26.0094074 2.89291,13.657598 2.69443,16.552682 -1.13477,16.552682 -7.44909,0 -18.04392,5.609482 -18.04392,9.553437 0,0.605942 10.56417,0.938979 23.47594,0.740089 l 23.47593,-0.361604 z"
       id="path2"
       transform="translate(350.18949,129.43691)" />
    <path
       style="fill:#6c535d;stroke-width:4.13829"
       d="m -324.10174,-30.432854 c -2.18747,-2.187465 -1.99725,-8.341902 0.3172,-10.26272 6.03284,-5.00681 14.62167,3.378027 9.38615,9.163217 -2.71535,3.000433 -7.28466,3.518191 -9.70335,1.099503 z"
       id="path3"
       transform="translate(350.18949,129.43691)" />
    <g
       id="layer1"
       inkscape:label="01"
       transform="translate(350.18949,129.43691)"
       style="fill:#aa4400">
      <path
         style="fill:#ff00ff;stroke-width:4.13829"
         d="m -39.159242,-79.516671 c 2.735735,-0.182085 5.446789,-2.119895 9.657921,-6.903274 l 5.854547,-6.650122 -4.360905,-3.741439 c -11.082363,-9.508114 -34.537921,-22.365474 -36.562234,-20.041894 -2.429646,2.78884 -11.113086,26.113635 -10.01998,26.914904 0.64319,0.471472 5.026918,3.412512 9.741618,6.535641 7.99688,5.297326 9.018935,5.626775 15.22892,4.908881 3.661207,-0.423253 8.368259,-0.883464 10.460113,-1.022697 z"
         id="path24" />
      <path
         style="fill:#ff0066;stroke-width:4.13829"
         d="m -136.41634,-90.565067 c 0.59171,-0.64941 2.65254,-7.735803 4.57961,-15.747543 1.92707,-8.01173 3.88606,-16.00218 4.35329,-17.75654 l 0.84952,-3.18975 -12.97945,0.91236 c -23.76977,1.67085 -44.65403,8.94043 -62.4382,21.73406 -4.63605,3.3351 -8.37874,6.402628 -8.31708,6.816734 0.0617,0.414103 2.40181,2.719476 5.20036,5.123051 3.53969,3.04011 10.18033,6.103238 21.81961,10.064723 l 16.73134,5.694594 14.56258,-6.235473 c 8.00942,-3.429512 15.04671,-6.76681 15.63842,-7.416216 z"
         id="path23" />
      <path
         style="fill:#ffff00;stroke-width:4.13829"
         d="m -92.097462,-84.047043 14.429345,-7.698782 5.170702,-13.109025 c 2.84389,-7.20996 4.693488,-13.57489 4.110216,-14.14428 -4.745812,-4.63284 -52.916531,-11.00949 -55.786351,-7.38478 -1.99054,2.51415 -9.73064,35.606363 -8.57776,36.673612 3.06369,2.836151 23.7658,14.418407 24.90025,13.930999 0.72834,-0.312938 7.81746,-4.033409 15.753598,-8.267744 z"
         id="path22" />
      <path
         style="fill:#c87137;stroke-width:4.13829"
         d="m -243.0403,-43.598959 3.31993,-1.512658 -4.08498,-5.688226 -4.08497,-5.688221 -3.80753,2.815029 c -4.56584,3.375672 -4.69019,4.517349 -0.92819,8.521814 3.24887,3.458261 4.83781,3.715563 9.58574,1.552262 z"
         id="path21" />
      <path
         style="fill:#ff0000;stroke-width:4.13829"
         d="m -224.05337,-47.714381 c 2.90292,-4.552123 9.31491,-15.058402 14.24887,-23.347292 l 8.97084,-15.070706 -5.15461,-4.412319 c -2.83503,-2.426778 -5.82646,-4.434695 -6.64761,-4.46204 -1.49428,-0.04978 -13.77932,13.3212 -23.68005,25.77323 -2.89555,3.641699 -6.41602,7.575052 -7.82327,8.74078 -2.51733,2.085295 -2.5088,2.192183 0.52871,6.62127 3.65005,5.322255 12.09578,14.433665 13.37914,14.433665 0.49498,0 3.27507,-3.724465 6.17798,-8.276588 z"
         id="path20" />
      <path
         style="fill:#ffccaa;stroke-width:4.13829"
         d="m -225.04754,-30.038193 c 0,-0.575707 -2.77376,-3.571083 -6.1639,-6.656387 -5.40505,-4.919033 -6.70359,-5.508405 -10.54758,-4.787265 -2.41102,0.452311 -4.67238,1.289504 -5.02523,1.860432 -0.35283,0.570927 2.93527,4.868222 7.30695,9.549551 l 7.94849,8.511502 3.24063,-3.715547 c 1.78235,-2.043547 3.24064,-4.186579 3.24064,-4.762286 z"
         id="path19" />
      <path
         style="fill:#0000ff;stroke-width:4.13829"
         d="m -191.32798,-18.806069 c 3.27142,-1.366887 4.83982,-3.085144 5.74162,-6.290207 0.6824,-2.425288 4.92322,-14.185719 9.42404,-26.134297 4.50081,-11.948578 7.92041,-22.409779 7.59909,-23.247109 -0.32129,-0.83733 -3.18016,-2.309825 -6.353,-3.272211 -3.17284,-0.96238 -9.19768,-2.866405 -13.38854,-4.231161 -4.19085,-1.364755 -8.36359,-2.481374 -9.27276,-2.481374 -0.90916,0 -4.60569,4.916293 -8.2145,10.925095 -3.60882,6.008802 -10.01355,16.41592 -14.23275,23.126924 -4.2192,6.711005 -7.67127,12.715251 -7.67127,13.342766 0,2.176357 5.99622,6.695486 13.24254,9.980422 4.00587,1.815957 9.07114,4.82381 11.25616,6.684122 4.6436,3.953523 5.84318,4.114929 11.86937,1.59703 z"
         id="path18" />
      <path
         style="fill:#ff6600;stroke-width:4.13829"
         d="m 10.533285,-19.204256 c 3.352543,-2.710015 8.454049,-7.13679 11.336686,-9.837283 l 5.241157,-4.909978 -3.562964,-3.562963 C 21.588533,-39.474107 14.051422,-48.90234 6.7990251,-58.466102 -0.45337181,-68.029868 -9.86919,-79.283838 -14.125015,-83.474928 l -7.737865,-7.620163 -6.16859,6.295909 -6.16859,6.295909 8.424279,19.48569 c 4.633358,10.717129 10.319187,24.234174 12.635179,30.037879 3.7272533,9.340219 4.7660768,10.782709 9.0446338,12.559233 6.9165619,2.871868 7.8531654,2.693644 14.6292532,-2.783785 z"
         id="path17" />
      <path
         style="fill:#c8b7b7;stroke-width:4.13829"
         d="m -213.40216,-16.968009 c 1.67075,-2.925542 2.74348,-5.795283 2.38383,-6.377206 -0.35966,-0.581918 -3.09754,-1.864508 -6.08422,-2.8502 -5.24029,-1.729451 -5.55542,-1.666631 -9.0051,1.795126 l -3.57478,3.587296 5.29702,4.542555 c 2.91335,2.498404 5.89293,4.560334 6.62127,4.582072 0.72834,0.02193 2.69123,-2.354101 4.36198,-5.279643 z"
         id="path16" />
      <path
         style="fill:#bec8b7;stroke-width:4.13829"
         d="m 25.06823,-15.566692 c 4.353117,-3.622716 8.330969,-7.260168 8.839648,-8.083229 0.508679,-0.823062 -0.557263,-2.978645 -2.368801,-4.790183 l -3.293722,-3.293705 -7.132523,6.245475 c -3.922891,3.435012 -8.895299,7.77585 -11.049802,9.646313 l -3.9172801,3.400838 3.9172801,1.670894 c 5.8748,2.5058647 6.452543,2.3211892 15.0052,-4.796403 z"
         id="path15" />
      <path
         style="fill:#e9afaf;stroke-width:4.13829"
         d="m -198.67402,-12.952697 c -4.7e-4,-1.717144 -8.95171,-8.710935 -9.81145,-7.665891 -0.17306,0.210349 -1.82509,2.808966 -3.67117,5.774657 l -3.3565,5.3921681 2.84726,1.7950346 c 8.76147,5.5236081 9.25741,5.5645028 11.7112,0.9657287 1.25466,-2.3514239 2.28096,-5.1691884 2.28066,-6.2616974 z"
         id="path14" />
      <path
         style="fill:#d42aff;stroke-width:4.13829"
         d="m -117.17396,-22.010425 c 1.28524,-9.220875 3.06966,-21.996284 3.96538,-28.389803 0.89572,-6.393515 1.57372,-14.438358 1.50667,-17.877429 l -0.12191,-6.252854 -10.59403,-6.374636 c -7.44337,-4.478817 -11.57862,-6.194099 -13.90467,-5.767585 -5.92417,1.086281 -28.17452,11.137617 -29.36531,13.265441 -0.63761,1.139355 -2.95636,7.013915 -5.15276,13.054578 -6.01526,16.543483 -13.32362,37.169318 -14.1086,39.817631 -0.44619,1.505346 0.70553,3.64645 3.20547,5.959143 11.56165,10.6956478 9.795,9.9596813 29.19487,12.1622177 17.2016,1.9529601 18.50569,1.93324114 25.58184,-0.3868063 l 7.45626,-2.444668 z"
         id="path13" />
      <path
         style="fill:#ff0000;stroke-width:4.13829"
         d="m -28.575424,-2.6977945 c 11.654251,-3.8325027 13.346088,-4.7955705 15.688623,-8.9306365 l 2.625686,-4.634889 -12.580492,-30.457845 -12.580495,-30.457842 -5.094509,0.227648 c -2.80198,0.125225 -7.420349,0.274203 -10.263043,0.331063 l -5.168526,0.103416 0.840298,14.897858 c 1.352071,23.971202 3.549484,53.060903 4.248877,56.2473187 0.529652,2.4130556 5.881169,6.7429854 8.558517,6.9247144 0.364169,0.02483 6.540449,-1.88814198 13.725064,-4.2508056 z"
         id="path12" />
      <path
         style="fill:#afe9af;stroke-width:4.13829"
         d="M 4.4455526,-2.0467416 C 9.3981963,-4.621952 12.973682,-7.167462 12.391076,-7.7034372 11.808475,-8.2394083 6.9626739,-10.169914 1.6226322,-11.993445 l -9.7091653,-3.315526 -2.5352349,4.157706 c -2.956504,4.8485864 -3.03471,5.6687258 -1.076229,11.28682365 C -9.9625044,5.1139963 -9.1023807,4.9977226 4.4455526,-2.046754 Z"
         id="path11" />
      <path
         style="fill:#008000;stroke-width:4.13829"
         d="m -59.762482,1.7503291 c 5.732559,-3.380899 6.202673,-4.0558588 6.164381,-8.8504569 -0.06936,-8.6817672 -1.803766,-34.6662042 -3.520136,-52.7370572 l -1.623096,-17.088794 -9.190128,-5.945064 -9.190133,-5.945065 -15.695798,7.760869 c -8.632688,4.268481 -15.697928,8.078653 -15.700538,8.467053 -0.003,0.38842 -1.78822,14.412211 -3.96802,31.164024 -2.1798,16.751813 -3.94658,31.9476315 -3.92616,33.7684807 0.0281,2.5003818 1.53873,4.22269 6.1726,7.03723042 5.3981,3.27872038 7.82015,3.81213408 20.153015,4.43834888 7.709641,0.3914826 14.122643,0.8001971 14.251112,0.9082934 0.128453,0.1080923 2.401121,0.3058199 5.050328,0.439342 3.213547,0.1619728 6.882276,-0.9753917 11.022573,-3.4172167 z"
         id="path10" />
      <path
         style="fill:#ffaaaa;stroke-width:4.13829"
         d="m -175.84344,1.94516 c 0.955,-2.73127384 1.7461,-5.3368925 1.75802,-5.7902591 0.012,-0.4533667 -3.09985,-3.6308148 -6.91503,-7.0609889 -5.85755,-5.266433 -7.51938,-6.108704 -10.68215,-5.414042 -3.01985,0.663269 -4.20015,2.087115 -6.09255,7.3497045 -1.2909,3.5898828 -2.18929,6.9930542 -1.9964,7.5625992 0.53674,1.58491686 16.05737,8.2398642 19.31488,8.2818554 2.14707,0.027727 3.31735,-1.2226795 4.61323,-4.9288691 z"
         id="path9" />
      <path
         style="fill:#dde9af;stroke-width:4.13829"
         d="m -23.878692,8.2116001 c 5.397783,-1.4354623 10.072826,-2.8686113 10.388987,-3.1847728 1.463992,-1.4639918 -1.379988,-8.710922 -3.424115,-8.7252157 -1.927894,-0.013656 -22.457779,6.4687738 -23.957281,7.564445 -0.672556,0.4914306 5.332733,7.0309324 6.415911,6.9866484 0.419292,-0.01697 5.178719,-1.2056384 10.576498,-2.6411049 z"
         id="path8" />
      <path
         style="fill:#6f917c;stroke-width:4.13829"
         d="m -40.534269,10.97161 c 1.755651,-1.7556543 -2.763176,-7.5763712 -7.359997,-9.4804374 -3.740955,-1.54955509 -4.72488,-1.38968866 -10.198415,1.6570018 -4.789247,2.6658018 -6.14083,4.1903575 -6.453511,7.2793906 l -0.395497,3.907373 11.639286,-1.117232 c 6.401605,-0.614478 12.14727,-1.625219 12.768147,-2.246096 z"
         id="path7" />
      <path
         style="fill:#c8beb7;stroke-width:4.13829"
         d="m -137.32352,8.5664298 c -0.37161,-3.4596135 -0.74534,-6.3886398 -0.83052,-6.5089441 -0.18345,-0.2590986 -7.88871,-1.29405272 -18.03229,-2.42209364 -4.00587,-0.44548318 -8.83513,-1.10462236 -10.73169,-1.46475316 -3.57972,-0.6797396 -6.36638,2.07780412 -8.30893,8.2221356 -0.79725,2.5217272 -0.14206,2.9365539 6.76147,4.2810605 12.81465,2.495731 21.97238,3.860354 27.01434,4.025484 l 4.80328,0.157338 z"
         id="path6" />
      <path
         style="fill:#aca793;stroke-width:4.13829"
         d="m -70.440885,14.127485 c 3.090544,-0.51352 4.303825,-1.422803 4.303825,-3.225464 0,-1.3806923 -0.540714,-2.8445268 -1.201582,-3.2529681 -0.660869,-0.4084496 -9.003669,-1.1229798 -18.539556,-1.5878716 L -103.21617,5.2159266 v 4.5996472 c 0,2.5298052 0.27631,4.8759772 0.61408,5.2137202 0.77476,0.774767 26.394459,0.0564 32.161205,-0.901809 z"
         id="path5" />
      <path
         style="fill:#e9ddaf;stroke-width:4.13829"
         d="m -104.54043,10.951266 c 0,-4.3584091 -0.71698,-5.7646923 -4.30382,-8.4414814 -7.98767,-5.9610382 -8.93795,-6.1282542 -17.87743,-3.14583978 l -8.27659,2.76125988 v 6.2736118 c 0,7.4079805 -0.18453,7.3309455 18.2085,7.6017355 l 12.24934,0.180346 z"
         id="path4" />
    </g>
  </g>
</svg>
