<?xml version="1.0" standalone="no"?>
<!DOCTYPE svg PUBLIC "-//W3C//DTD SVG 20010904//EN" "http://www.w3.org/TR/2001/REC-SVG-20010904/DTD/svg10.dtd">
<svg version="1.0" xmlns="http://www.w3.org/2000/svg"
    width="512.000000pt" height="512.000000pt" viewBox="0 0 512.000000 512.000000"
    preserveAspectRatio="xMidYMid meet" id="clockIcon">

    <g transform="translate(0.000000,512.000000) scale(0.100000,-0.100000)" stroke="none">
        <path
            d="M2370 5114 c-19 -2 -78 -9 -130 -15 -548 -62 -1083 -325 -1489 -730
-405 -406 -652 -907 -732 -1489 -18 -125 -18 -515 0 -640 80 -582 327 -1083
732 -1489 926 -926 2395 -1005 3414 -184 1101 887 1274 2498 388 3598 -409
507 -975 829 -1633 930 -100 15 -472 28 -550 19z m92 -344 c3 -148 3 -150 31
-177 20 -21 37 -28 67 -28 30 0 47 7 68 28 27 27 27 29 30 177 l4 150 52 0
c132 0 387 -47 566 -105 300 -97 566 -244 803 -443 42 -36 77 -68 77 -71 0 -2
-47 -53 -105 -111 -95 -97 -105 -110 -105 -144 0 -52 44 -96 96 -96 34 0 47
10 146 108 l109 107 40 -45 c242 -276 422 -620 515 -985 30 -119 64 -337 64
-417 l0 -56 -150 -4 c-148 -3 -150 -3 -177 -31 -38 -38 -38 -96 0 -134 27 -28
29 -28 177 -31 l150 -4 0 -56 c0 -80 -34 -298 -64 -417 -93 -365 -271 -705
-515 -985 l-40 -45 -109 107 c-102 101 -112 108 -149 108 -56 0 -93 -37 -93
-93 0 -37 7 -47 108 -149 l107 -109 -45 -40 c-280 -246 -626 -426 -1000 -519
-107 -27 -327 -60 -402 -60 l-56 0 -4 150 c-3 148 -3 150 -31 177 -20 21 -37
28 -67 28 -30 0 -47 -7 -67 -28 -28 -27 -28 -29 -31 -177 l-4 -150 -56 0 c-80
0 -298 34 -417 64 -372 95 -691 263 -995 524 l-35 30 107 110 c98 99 108 112
108 146 0 52 -44 96 -96 96 -34 0 -47 -10 -146 -108 l-109 -107 -40 45 c-223
254 -398 575 -494 905 -47 163 -85 387 -85 501 l0 52 150 4 c148 3 150 3 177
30 38 39 38 97 0 136 -27 27 -29 27 -177 30 l-150 4 0 52 c0 132 47 387 105
566 97 300 244 566 443 803 36 42 68 77 71 77 2 0 53 -47 111 -105 99 -97 110
-105 145 -105 55 0 95 39 95 93 0 37 -7 47 -108 149 l-107 110 35 30 c385 331
811 521 1305 581 17 2 60 5 97 6 l66 1 4 -150z" />
        <path
            d="M2525 3881 c-11 -5 -29 -19 -40 -31 -19 -22 -20 -38 -23 -639 l-3
-616 -254 -255 c-250 -251 -255 -257 -255 -297 0 -56 37 -93 93 -93 40 0 47 5
315 272 151 150 280 287 288 305 11 27 14 144 14 648 0 641 -1 659 -42 692
-20 17 -69 24 -93 14z" />
    </g>
</svg>